<?xml version="1.0" encoding="UTF-8" standalone="no"?>
<svg
   height="24px"
   viewBox="0 -960 960 960"
   width="24px"
   fill="#e8eaed"
   version="1.1"
   id="svg1012"
   sodipodi:docname="cifra2.svg"
   inkscape:version="1.2.2 (b0a8486541, 2022-12-01)"
   xmlns:inkscape="http://www.inkscape.org/namespaces/inkscape"
   xmlns:sodipodi="http://sodipodi.sourceforge.net/DTD/sodipodi-0.dtd"
   xmlns="http://www.w3.org/2000/svg"
   xmlns:svg="http://www.w3.org/2000/svg">
  <defs
     id="defs1016" />
  <sodipodi:namedview
     id="namedview1014"
     pagecolor="#ffffff"
     bordercolor="#999999"
     borderopacity="1"
     inkscape:showpageshadow="0"
     inkscape:pageopacity="0"
     inkscape:pagecheckerboard="0"
     inkscape:deskcolor="#d1d1d1"
     showgrid="false"
     inkscape:zoom="20.125"
     inkscape:cx="11.57764"
     inkscape:cy="9.689441"
     inkscape:window-width="1366"
     inkscape:window-height="652"
     inkscape:window-x="0"
     inkscape:window-y="32"
     inkscape:window-maximized="1"
     inkscape:current-layer="svg1012" />
  <path
     d="m 436.8,-144 h 84 v -60 q 60,-10.8 103.2,-46.8 43.2,-36 43.2,-106.8 0,-50.4 -28.8,-92.4 -28.8,-42 -115.2,-73.2 -72,-24 -99.6,-42 -27.6,-18 -27.6,-49.2 0,-31.2 22.2,-49.2 22.2,-18 64.2,-18 38.4,0 60,18.6 21.6,18.6 31.2,46.2 l 76.8,-31.2 q -13.2,-42 -48.6,-73.2 -35.4,-31.2 -78.6,-34.8 v -60 h -84 v 60 q -60,13.2 -93.6,52.8 -33.6,39.6 -33.6,88.8 0,56.4 33,91.2 33,34.8 103.8,60 75.6,27.6 105,49.2 29.4,21.6 29.4,56.4 0,39.6 -28.2,58.2 -28.2,18.6 -67.8,18.6 -39.6,0 -70.2,-24.6 -30.6,-24.6 -45,-73.8 l -79.2,31.2 q 16.8,57.6 52.2,93 35.4,35.4 91.8,48.6 z M 480,0 Q 380.4,0 292.8,-37.8 205.2,-75.6 140.4,-140.4 75.6,-205.2 37.8,-292.8 0,-380.4 0,-480 q 0,-99.6 37.8,-187.2 37.8,-87.6 102.6,-152.4 64.8,-64.8 152.4,-102.6 87.6,-37.8 187.2,-37.8 99.6,0 187.2,37.8 87.6,37.8 152.4,102.6 64.8,64.8 102.6,152.4 37.8,87.6 37.8,187.2 0,99.6 -37.8,187.2 -37.8,87.6 -102.6,152.4 Q 754.8,-75.6 667.2,-37.8 579.6,0 480,0 Z m 0,-96 Q 640.8,-96 752.4,-207.6 864,-319.2 864,-480 864,-640.8 752.4,-752.4 640.8,-864 480,-864 319.2,-864 207.6,-752.4 96,-640.8 96,-480 96,-319.2 207.6,-207.6 319.2,-96 480,-96 Z m 0,-384 z"
     id="path1010"
     style="fill:#000000;stroke-width:1.20001" />
</svg>
