<?xml version="1.0" encoding="UTF-8" standalone="no"?>
<svg
   viewBox="0 0 24 24"
   fill="#e8eaed"
   version="1.1"
   id="svg4"
   sodipodi:docname="edit_square_24dp_E8EAED_FILL0_wght400_GRAD0_opsz24.svg"
   inkscape:version="1.2.2 (b0a8486541, 2022-12-01)"
   xmlns:inkscape="http://www.inkscape.org/namespaces/inkscape"
   xmlns:sodipodi="http://sodipodi.sourceforge.net/DTD/sodipodi-0.dtd"
   xmlns="http://www.w3.org/2000/svg"
   xmlns:svg="http://www.w3.org/2000/svg">
  <defs
     id="defs8" />
  <sodipodi:namedview
     id="namedview6"
     pagecolor="#ffffff"
     bordercolor="#999999"
     borderopacity="1"
     inkscape:showpageshadow="0"
     inkscape:pageopacity="0"
     inkscape:pagecheckerboard="0"
     inkscape:deskcolor="#d1d1d1"
     showgrid="false"
     inkscape:zoom="4.3871441"
     inkscape:cx="3.1911421"
     inkscape:cy="3.6470195"
     inkscape:window-width="1366"
     inkscape:window-height="652"
     inkscape:window-x="0"
     inkscape:window-y="32"
     inkscape:window-maximized="1"
     inkscape:current-layer="svg4" />
  <path
     d="M 2.4119848,24 Q 1.4232208,24 0.7191008,23.29588 0.014981,22.59176 0.014981,21.603 V 4.82397 q 0,-0.98876 0.7041198,-1.69288 0.70412,-0.70412 1.692884,-0.70412 H 13.108614 l -2.397004,2.397 H 2.4119848 V 21.603 H 19.191011 V 13.27341 L 21.588015,10.8764 V 21.603 q 0,0.98876 -0.70412,1.69288 Q 20.179775,24 19.191011,24 Z M 10.801498,13.21348 Z M 7.2059923,16.80899 V 11.71536 L 18.202247,0.7191 Q 18.561797,0.35955 19.011236,0.17978 19.460674,0 19.910112,0 q 0.479401,0 0.913858,0.17978 0.434457,0.17977 0.794007,0.53932 l 1.677904,1.70787 q 0.329588,0.35955 0.509363,0.794 0.179775,0.43446 0.179775,0.8839 0,0.44944 -0.164795,0.88389 -0.164793,0.43446 -0.524343,0.79401 L 12.299625,16.80899 Z M 21.617977,4.10487 19.940075,2.42697 Z M 9.602996,14.41198 h 1.677903 L 18.232209,7.46067 17.393258,6.62172 16.524344,5.78277 9.602996,12.70412 Z m 7.790262,-7.79026 -0.868914,-0.83895 0.868914,0.83895 0.838952,0.83895 z"
     id="path2"
     style="fill:#000000;stroke-width:0.0299625" />
</svg>
